<?xml version="1.0" encoding="UTF-8"?>
<svg width="80px" height="69px" viewBox="0 0 80 69" version="1.1" xmlns="http://www.w3.org/2000/svg" xmlns:xlink="http://www.w3.org/1999/xlink">
    <!-- Generator: sketchtool 54 (76480) - https://sketchapp.com -->
    <title>027E7C7E-260B-43E5-A5D7-4DA6C5374678</title>
    <desc>Created with sketchtool.</desc>
    <g id="Page-1" stroke="none" stroke-width="1" fill="none" fill-rule="evenodd">
        <g id="Icare" transform="translate(-1040.000000, -2301.000000)" fill-rule="nonzero">
            <g id="fingerprint-scan" transform="translate(1040.000000, 2301.000000)">
                <g id="Group" transform="translate(0.000000, 7.000000)" fill="#DB165E">
                    <path d="M11.1587983,28.8678261 L11.1587983,32.967205 L5.28497854,32.967205 C4.66337418,31.895988 3.39612447,31.373725 2.19527705,31.6938673 C0.99442963,32.0140096 0.1594152,33.0967298 0.1594152,34.3336646 C0.1594152,35.5705994 0.99442963,36.6533196 2.19527705,36.9734619 C3.39612447,37.2936042 4.66337418,36.7713412 5.28497854,35.7001242 L12.5321888,35.7001242 C13.2906915,35.7001242 13.9055794,35.0883394 13.9055794,34.3336646 L13.9055794,30.2342857 L19.3991416,30.2342857 L19.3991416,27.5013665 L12.5321888,27.5013665 C11.7736862,27.5013665 11.1587983,28.1131513 11.1587983,28.8678261 Z" id="Path"></path>
                    <path d="M4.29184549,11.1038509 L4.29184549,5.25608696 C5.36027395,4.63420752 5.87625616,3.37629802 5.55026321,2.18819902 C5.22427026,1.00010003 4.13744586,0.177544186 2.89963098,0.182085593 C1.66181609,0.186627001 0.58111829,1.01713524 0.26394076,2.20759396 C-0.0532367705,3.39805268 0.472055417,4.65214186 1.54506438,5.2661646 L1.54506438,12.4703106 C1.54506438,13.2249854 2.15995227,13.8367702 2.91845494,13.8367702 L19.3991416,13.8367702 L19.3991416,11.1038509 L4.29184549,11.1038509 Z" id="Path"></path>
                    <path d="M1.54506438,42.5310559 L1.54506438,49.7352019 C0.464163642,50.3499518 -0.0667876528,51.6105418 0.250679249,52.8083443 C0.568146151,54.0061468 1.65482454,54.8423149 2.89984944,54.8468053 C4.14487433,54.8512957 5.23761705,54.0229882 5.56380361,52.8275072 C5.88999017,51.6320262 5.36823834,50.3676394 4.29184549,49.7451087 L4.29184549,43.8975155 L19.3991416,43.8975155 L19.3991416,41.1645963 L2.91845494,41.1645963 C2.15995227,41.1645963 1.54506438,41.7763811 1.54506438,42.5310559 Z" id="Path"></path>
                    <path d="M1.75914163,18.1923602 C0.683113543,18.6876893 0.0479514025,19.8140466 0.183838958,20.9859045 C0.319726513,22.1577625 1.1959925,23.1106204 2.35711736,23.3491431 C3.51824221,23.5876657 4.70214775,23.058016 5.29339056,22.035528 L19.3991416,22.035528 L19.3991416,19.3026087 L5.28206009,19.3026087 C4.57376595,18.080851 3.04524454,17.5991371 1.75914163,18.1923602 Z" id="Path"></path>
                    <path d="M66.0944206,34.3336646 C66.0944206,35.0883394 66.7093085,35.7001242 67.4678112,35.7001242 L74.7150215,35.7001242 C75.3366258,36.7713412 76.6038755,37.2936042 77.8047229,36.9734619 C79.0055704,36.6533196 79.8405848,35.5705994 79.8405848,34.3336646 C79.8405848,33.0967298 79.0055704,32.0140096 77.8047229,31.6938673 C76.6038755,31.373725 75.3366258,31.895988 74.7150215,32.967205 L68.8412017,32.967205 L68.8412017,28.8678261 C68.8412017,28.1131513 68.2263138,27.5013665 67.4678112,27.5013665 L60.6008584,27.5013665 L60.6008584,30.2342857 L66.0944206,30.2342857 L66.0944206,34.3336646 Z" id="Path"></path>
                    <path d="M78.4549356,12.4703106 L78.4549356,5.2661646 C79.5359805,4.65147299 80.0670873,3.39082984 79.7496928,2.19290954 C79.4322982,0.994989251 78.3455934,0.158677351 77.1004727,0.154109139 C75.855352,0.149540928 74.7624778,0.97785619 74.4362125,2.17341497 C74.1099472,3.36897374 74.6316953,4.6334797 75.7081545,5.25608696 L75.7081545,11.1038509 L60.6008584,11.1038509 L60.6008584,13.8367702 L77.0815451,13.8367702 C77.8400477,13.8367702 78.4549356,13.2249854 78.4549356,12.4703106 Z" id="Path"></path>
                    <path d="M75.9208584,23.1468012 C77.2653235,23.7783742 78.8708079,23.2309493 79.5433141,21.9116459 C80.2158202,20.5923426 79.7111955,18.9801324 78.404729,18.2740149 C77.0982624,17.5678975 75.4642652,18.0242279 74.7179399,19.3036335 L60.6008584,19.3036335 L60.6008584,22.0365528 L74.7066094,22.0365528 C74.986559,22.5223995 75.4106901,22.9102037 75.9208584,23.1468012 L75.9208584,23.1468012 Z" id="Path"></path>
                    <path d="M78.4549356,49.7352019 L78.4549356,42.5310559 C78.4549356,41.7763811 77.8400477,41.1645963 77.0815451,41.1645963 L60.6008584,41.1645963 L60.6008584,43.8975155 L75.7081545,43.8975155 L75.7081545,49.7451087 C74.6394754,50.3669408 74.1232623,51.6249919 74.4491877,52.8133077 C74.7751131,54.0016234 75.8620451,54.8243985 77.1000527,54.8199333 C78.3380602,54.8154682 79.4189683,53.9848744 79.7362263,52.7942389 C80.0534843,51.6036034 79.5281177,50.3493089 78.4549356,49.7352019 L78.4549356,49.7352019 Z" id="Path"></path>
                </g>
                <path d="M21.1612903,1.22568622e-14 C18.8630731,1.22568622e-14 17,1.85354114 17,4.14 L17,66.24 C17.0028769,66.9980977 17.2168336,67.7405772 17.618125,68.3850375 C18.2658995,68.7842758 19.0121973,68.9971378 19.7741935,69 L55.8387097,69 C58.1369269,69 60,67.1464589 60,64.86 L60,2.76 C59.9971231,2.00190232 59.7831664,1.25942282 59.381875,0.6149625 C58.7341005,0.215724237 57.9878027,0.00286220099 57.2258065,0 L21.1612903,1.22568622e-14 Z" id="Path" fill="#ECECEC"></path>
                <rect id="Rectangle" fill="#408DDA" x="27" y="51" width="27" height="11" rx="5.5"></rect>
                <polygon id="Path" fill="#ECECEC" points="41 55 44 55 44 58 41 58"></polygon>
                <polygon id="Path" fill="#ECECEC" points="47 55 50 55 50 58 47 58"></polygon>
                <polygon id="Path" fill="#ECECEC" points="36 55 39 55 39 58 36 58"></polygon>
                <polygon id="Path" fill="#ECECEC" points="30 55 33 55 33 58 30 58"></polygon>
                <path d="M48.4779375,6 L33.5220625,6 C32.2602159,5.99998516 31.1602954,5.0631375 30.8542188,3.7276875 L30,0 L52,0 L51.1457812,3.7276875 C50.8397046,5.0631375 49.7397841,5.99998516 48.4779375,6 Z" id="Path" fill="#408DDA"></path>
            </g>
        </g>
    </g>
</svg>