<?xml version="1.0" encoding="UTF-8"?>
<svg width="88px" height="49px" viewBox="0 0 88 49" version="1.1" xmlns="http://www.w3.org/2000/svg" xmlns:xlink="http://www.w3.org/1999/xlink">
    <!-- Generator: sketchtool 54 (76480) - https://sketchapp.com -->
    <title>D46CE1E8-DA30-4058-A3D4-1E06B79B8958</title>
    <desc>Created with sketchtool.</desc>
    <g id="Page-1" stroke="none" stroke-width="1" fill="none" fill-rule="evenodd">
        <g id="Icare" transform="translate(-640.000000, -2321.000000)">
            <g id="pickup-truck" transform="translate(640.000000, 2321.000000)">
                <path d="M31.9909007,2 C31.4449013,2 31,2.43251909 31,2.96342235 L31,15.3505463 L38.9064322,18 L47,15.3505463 L47,2.96342235 C47,2.43251909 46.5500784,2 46.0090993,2 L31.9909007,2 Z" id="Path" fill="#DB165E"></path>
                <path d="M31,16 L47,16 L47,15.9793258 L47,13.2720595 L47,3.00879728 C47,2.45288972 46.5500784,2 46.0090993,2 L42.6271572,2 C43.1731566,2 43.6180579,2.45288972 43.6180579,3.00879728 L43.6180579,11.2440394 C43.6180579,12.0572265 42.9609197,12.7264007 42.1571544,12.7264007 L31.0001731,12.7264007 L31.0001731,16 L31,16 Z" id="Path" fill="#BC1150"></path>
                <path d="M24.0092616,2 L9.99091145,2 C9.44490608,2 9,2.446653 9,2.99490518 L9,15.786817 L16.7396347,19 L24.9999999,15.786817 L24.9999999,2.99490518 C25.0001731,2.446653 24.555267,2 24.0092616,2 L24.0092616,2 Z" id="Path" fill="#DB165E"></path>
                <path d="M9,16 L21.6180213,16 L25,16 L25,13.2680251 L25,3.01028921 C25,2.45355951 24.5550939,2 24.0090885,2 L20.6271098,2 C21.1731152,2 21.6180213,2.45355951 21.6180213,3.01028921 L21.6180213,11.2371827 C21.6180213,12.0567044 20.960876,12.7217363 20.1621224,12.7217363 L9,12.7217363 L9,16 Z" id="Path" fill="#BC1150"></path>
                <path d="M6.65228746,16 L4.81870126,16 C3.81952766,16 3,16.7965015 3,17.8007048 L3,33.0171103 L25.6228985,36 L52.4975886,33.0171103 L56,25.2604764 L52.4975886,16 C37.2143387,16 21.9358795,16 6.65228746,16 Z" id="Path" fill="#408DDA"></path>
                <polygon id="Path" fill="#1E60A3" points="49 33 53 33 53 16 49 16 49 27.6676181"></polygon>
                <path d="M52.6537513,24 L9.34642159,24 C8.60275147,24 8,23.3284906 8,22.5 C8,21.6715094 8.60275147,21 9.34642159,21 L52.6535784,21 C53.3972485,21 54,21.6715094 54,22.5 C54.0001729,23.3284906 53.3972485,24 52.6537513,24 Z" id="Path" fill="#1E60A3" fill-rule="nonzero"></path>
                <g id="Group" fill-rule="nonzero">
                    <path d="M52.9967969,2.16855088 L52.9967969,15.4597579 L52.9967969,22.8565228 L52.9967969,32.6872982 L69.1783125,35.7772211 L84.5719531,32.6872982 L84.827875,32.6872982 C84.827875,25.0300596 84.827875,24.3189579 84.827875,19.8718211 C84.827875,17.1274772 83.2167188,15.1743544 80.5968281,15.1743544 L79.2015469,15.1743544 C77.0283594,15.1743544 76.37575,13.6770175 75.0155313,11.6637193 L69.845875,3.99152281 C68.3601875,1.78789825 67.406625,0 63.8128906,0 L59.8929375,0 L55.6969531,0 C53.5488594,0 53.1172812,1.4273614 52.9967969,2.16855088 L52.9967969,2.16855088 Z" id="Path" fill="#ECECEC"></path>
                    <path d="M58.5428594,6.15990175 L58.5478437,12.8256211 C58.5478437,13.4717333 59.1500938,14.1377895 60.1088125,14.1377895 L68.8520938,14.1377895 C69.0327344,14.1278175 69.1783125,14.0126246 69.1783125,13.8723298 L69.1783125,13.5167789 C69.1783125,13.2313754 69.128125,13.0259193 68.9425,12.7706035 L64.7013125,6.76595439 C64.2595938,6.13995789 63.7927813,5.87449825 62.9095156,5.87449825 L58.9244219,5.87449825 C58.7185156,5.87432632 58.5478438,5.99966316 58.5428594,6.15990175 Z" id="Path" fill="#A6E7F0"></path>
                    <path d="M62.9095156,5.87432632 L58.5428594,5.87690526 C59.4262969,5.87690526 59.8929375,6.14236491 60.3346563,6.7683614 L64.5758438,12.7730105 C64.7614688,13.0284982 64.8116563,13.2337825 64.8116563,13.519186 L64.8116563,13.8747368 C64.8116563,14.0150316 64.6660781,14.1302246 64.4854375,14.1401965 L68.8520938,14.1376175 C69.0327344,14.1276456 69.1783125,14.0124526 69.1783125,13.8721579 L69.1783125,13.516607 C69.1783125,13.2312035 69.128125,13.0257474 68.9425,12.7704316 L64.7013125,6.76578246 C64.2595938,6.13978596 63.7927813,5.87432632 62.9095156,5.87432632 L62.9095156,5.87432632 Z" id="Path" fill="#6BD9E7"></path>
                    <path d="M79.5427188,21.9401368 C78.5238438,21.9401368 77.6905938,22.7764035 77.6905938,23.7930246 L77.6905938,25.1853123 C77.6905938,26.2019333 78.5238438,27.0382 79.5427188,27.0382 L84.827875,27.0382 L84.827875,21.9399649 L79.5427188,21.9399649 L79.5427188,21.9401368 Z" id="Path" fill="#A6E7F0"></path>
                    <polygon id="Path" fill="#6BD9E7" points="81.670875 21.9401368 84.827875 21.9401368 84.827875 27.0383719 81.670875 27.0383719"></polygon>
                    <path d="M80.2805781,15.1741825 C81.1739844,16.2858807 81.670875,17.8734807 81.670875,19.4009053 L81.670875,21.9399649 L84.827875,21.9399649 L84.827875,19.8716491 C84.827875,17.1273053 83.2167188,15.1741825 80.5968281,15.1741825 L80.2805781,15.1741825 Z" id="Path" fill="#CECECE"></path>
                    <polygon id="Path" fill="#CECECE" points="81.670875 27.0382 84.827875 27.0382 84.827875 32.6872982 81.670875 32.6872982"></polygon>
                    <path d="M20.508125,32.6872982 L3.2725,32.6872982 L3.02654687,32.6872982 C1.36021875,32.6872982 -1.0658141e-14,34.0445123 -1.0658141e-14,35.7070737 C-1.0658141e-14,37.369807 1.36021875,38.7318351 3.02654687,38.7318351 L17.8028125,38.7318351 C17.9483906,36.3831018 18.957125,34.2647544 20.508125,32.6872982 L20.508125,32.6872982 Z" id="Path" fill="#9B9B9B"></path>
                    <path d="M52.9967969,32.6872982 L25.2209375,32.6872982 C26.7769219,34.2647544 27.7806719,36.3832737 27.9312344,38.732007 L37.3822969,38.732007 L42.2307188,38.732007 L48.2686875,38.732007 L56.5953437,38.732007 L59.6870313,38.732007 C59.8326094,36.3832737 60.8413437,34.2649263 62.3923437,32.6872982 L52.9967969,32.6872982 Z" id="Path" fill="#9B9B9B"></path>
                    <path d="M84.5719531,32.6872982 L70.648875,32.6872982 C72.2048594,34.2647544 73.2086094,36.3832737 73.3541875,38.732007 L84.9684687,38.732007 C86.6347969,38.732007 88,37.369807 88,35.7072456 C88,34.0445123 86.6347969,32.6874702 84.9684687,32.6874702 L84.5719531,32.6874702 L84.5719531,32.6872982 Z" id="Path" fill="#9B9B9B"></path>
                    <path d="M21.9786875,29.8477053 C19.3235625,29.8477053 16.9245313,30.9344737 15.197875,32.6872982 C13.6418906,34.2647544 12.6381406,36.3832737 12.4875781,38.732007 C12.4776094,38.9323053 12.4674688,39.1326035 12.4674688,39.3380596 C12.4674688,44.5764175 16.7287656,48.8282421 21.9786875,48.8282421 C27.2337656,48.8282421 31.4899062,44.5764175 31.4899062,39.3380596 C31.4899062,39.1327754 31.4849219,38.9324772 31.4697969,38.732007 C31.3242188,36.3832737 30.3154844,34.2649263 28.7644844,32.6872982 C27.038,30.9344737 24.6387969,29.8477053 21.9786875,29.8477053 Z" id="Path" fill="#838383"></path>
                    <path d="M69.1783125,29.8477053 C66.5231875,29.8477053 64.119,30.9344737 62.3925156,32.6872982 C60.8416875,34.2647544 59.8327813,36.3832737 59.6872031,38.732007 C59.6720781,38.9323053 59.6670938,39.1326035 59.6670938,39.3380596 C59.6670938,44.5814035 63.9232344,48.8282421 69.1783125,48.8282421 C74.4282344,48.8282421 78.6895313,44.5814035 78.6895313,39.3380596 C78.6895313,39.1327754 78.6795625,38.9324772 78.6694219,38.732007 C78.5188594,36.3832737 77.5151094,34.2649263 75.959125,32.6872982 C74.237625,30.9344737 71.8334375,29.8477053 69.1783125,29.8477053 Z" id="Path" fill="#838383"></path>
                    <path d="M25.2209375,32.6872982 C26.907375,34.4000632 27.9513438,36.7487965 27.9513438,39.3378877 C27.9513438,43.9753509 24.6137031,47.8365509 20.2118125,48.6628456 C20.7839844,48.7730526 21.3762656,48.8280702 21.9785156,48.8280702 C27.2335938,48.8280702 31.4897344,44.5762456 31.4897344,39.3378877 C31.4897344,39.1326035 31.48475,38.9323053 31.469625,38.7318351 C31.4043125,37.6651825 31.1583594,36.6485614 30.7719844,35.7070737 C30.3001875,34.5752596 29.6125156,33.5486667 28.7643125,32.6872982 C27.8758906,31.7858702 26.8068281,31.0596386 25.6122969,30.5639649 C24.4930469,30.103193 23.2684375,29.8478772 21.9785156,29.8478772 C21.3762656,29.8478772 20.7839844,29.9028947 20.2118125,30.0131018 C22.1543438,30.3786246 23.8909688,31.3350702 25.2209375,32.6872982 Z" id="Shape" fill="#595959"></path>
                    <path d="M72.4207344,32.6872982 C74.1071719,34.4000632 75.1461563,36.7487965 75.1461563,39.3378877 C75.1461563,43.9753509 71.8135,47.8365509 67.406625,48.6628456 C67.9787969,48.7730526 68.5710781,48.8280702 69.1783125,48.8280702 C74.4282344,48.8280702 78.6895313,44.5812316 78.6895313,39.3378877 C78.6895313,39.1326035 78.6795625,38.9323053 78.6694219,38.7318351 C78.599125,37.6651825 78.3583281,36.6485614 77.9667969,35.7070737 C77.495,34.5752596 76.8124844,33.5486667 75.959125,32.6872982 C75.0707031,31.7858702 74.0016406,31.0596386 72.8120938,30.5639649 C71.6928438,30.103193 70.4630781,29.8478772 69.1783125,29.8478772 C68.5710781,29.8478772 67.9787969,29.9028947 67.406625,30.0131018 C69.3539688,30.3786246 71.0856094,31.3350702 72.4207344,32.6872982 L72.4207344,32.6872982 Z" id="Path" fill="#595959"></path>
                    <path d="M69.1783125,35.7772211 C67.090375,35.7772211 65.3989531,37.4648842 65.3989531,39.5431719 C65.3989531,41.6264456 67.090375,43.3142807 69.1783125,43.3142807 C71.2612656,43.3142807 72.9526875,41.6266175 72.9526875,39.5431719 C72.9526875,37.4648842 71.2612656,35.7772211 69.1783125,35.7772211 Z" id="Path" fill="#E6E6E6"></path>
                    <path d="M21.9786875,35.5719368 C19.8957344,35.5719368 18.2043125,37.254614 18.2043125,39.3378877 C18.2043125,41.4211614 19.8957344,43.1038386 21.9786875,43.1038386 C24.066625,43.1038386 25.7580469,41.4211614 25.7580469,39.3378877 C25.7580469,37.254614 24.066625,35.5719368 21.9786875,35.5719368 Z" id="Path" fill="#E6E6E6"></path>
                </g>
            </g>
        </g>
    </g>
</svg>