<?xml version="1.0" encoding="UTF-8"?>
<svg width="41px" height="75px" viewBox="0 0 41 75" version="1.1" xmlns="http://www.w3.org/2000/svg" xmlns:xlink="http://www.w3.org/1999/xlink">
    <!-- Generator: sketchtool 54 (76480) - https://sketchapp.com -->
    <title>DB40199C-731B-456D-84A9-06C1186FED19</title>
    <desc>Created with sketchtool.</desc>
    <g id="Page-1" stroke="none" stroke-width="1" fill="none" fill-rule="evenodd">
        <g id="Icare" transform="translate(-645.000000, -2560.000000)" fill-rule="nonzero">
            <g id="repair-services" transform="translate(645.000000, 2560.000000)">
                <path d="M41,2.58620663 L41,72.4137856 C41,72.4638933 40.9983984,72.5140011 40.9951953,72.5641088 C40.9172462,73.9319821 39.7950741,75.0007101 38.4375,74.9999922 L2.5625,74.9999922 C2.30790832,75.000627 2.05467946,74.962482 1.81136719,74.8868457 C0.90587412,74.6064454 0.227269188,73.845119 0.0464453168,72.9067812 C0.0155420899,72.7443027 -9.43319252e-06,72.5792305 4.29277619e-09,72.4137856 L4.29277619e-09,2.58620663 C4.29277619e-09,1.15788415 1.14727033,0 2.5625,0 L38.4375,0 C39.8527297,0 41,1.15788415 41,2.58620663 L41,2.58620663 Z" id="Path" fill="#408DDA"></path>
                <rect id="Rectangle" fill="#1E60A3" x="12" y="0" width="18" height="5" rx="2.5"></rect>
                <polygon id="Path" fill="#1E60A3" points="18 69 23 69 23 72 18 72"></polygon>
                <polygon id="Path" fill="#1E60A3" points="25 69 28 69 28 72 25 72"></polygon>
                <polygon id="Path" fill="#DB165E" points="41 39.4155675 41 51 31.4163636 45.86893 23.4061364 47.3716804 13 41.7024309 23.1818182 24 32.9897727 29.3354823 35.6609091 35.5748507 36.2081818 36.850831 37.3313636 37.4528893"></polygon>
                <polygon id="Path" fill="#CDCDCD" points="29 34.0008119 23.75 43 13.25 43 8 34.0008119 13.25 25 23.75 25"></polygon>
                <polygon id="Path" fill="#DBDBDB" points="26 34.0008119 20.8571429 43 13.1428571 43 8 34.0008119 13.1428571 25 20.8571429 25"></polygon>
                <polygon id="Path" fill="#F3AF3E" points="14 30 22 30 22 38 14 38"></polygon>
                <polygon id="Path" fill="#C38325" points="16 32 19 32 19 35 16 35"></polygon>
                <circle id="Oval" fill="#1E60A3" cx="15.5" cy="52.5" r="2.5"></circle>
                <circle id="Oval" fill="#1E60A3" cx="21.5" cy="16.5" r="2.5"></circle>
                <path d="M41,44.0357827 L41,47 L32.7141208,42.701075 C32.0517024,42.3579751 31.8068532,41.5818579 32.1642728,40.9581799 L34.9950358,36 L35.1788966,36.0923281 L35.7755771,37.386541 L37.0001596,37.9972022 L35.2534817,41.0537476 L41,44.0357827 Z" id="Path" fill="#BC1150"></path>
                <g id="Group" transform="translate(0.000000, 9.000000)" fill="#1E60A3">
                    <path d="M16.6562505,44.9705882 L16.65625,50.4705882 C16.6566638,50.9310057 16.4144376,51.3568477 16.0204297,51.5883824 L2.84217094e-14,61.0273529 L2.84217094e-14,58.0314706 L14.09375,49.7280882 L14.09375,44.9705882 L16.6562505,44.9705882 Z" id="Path"></path>
                    <path d="M21.78125,46.5882353 L21.78125,54.3529412 C21.7809937,54.8310569 21.5199246,55.2701274 21.1021875,55.495 L1.81136719,65.8867647 C0.905874116,65.6061445 0.227269184,64.8442209 0.0464453125,63.9051471 L19.21875,53.5764706 L19.21875,46.5882353 L21.78125,46.5882353 Z" id="Path"></path>
                    <path d="M19.6992187,7.48113235 L13.6441914,2.58823529 L-1.42108547e-14,2.58823529 L-1.42108547e-14,-6.27518051e-08 L14.09375,5.40205763e-10 C14.3848184,-9.19099578e-05 14.6672432,0.0999206667 14.8945312,0.28357353 L21.3007812,5.46004412 L19.6992187,7.48113235 Z" id="Path"></path>
                    <path d="M14.4689961,9.97392647 L12.2819023,7.76470588 L-1.42108547e-14,7.76470588 L-1.42108547e-14,5.17647059 L12.8125,5.17647059 C13.1523134,5.17645808 13.4782134,5.31279403 13.7185039,5.55548529 L16.2810039,8.14372059 L14.4689961,9.97392647 Z" id="Path"></path>
                    <path d="M41,60.6698529 L41,63.4117647 C41,63.4619118 40.9983984,63.5120588 40.9951953,63.5622059 L25.0516406,55.5111765 C24.6177687,55.2914212 24.3438145,54.8431832 24.34375,54.3529412 L24.34375,46.5882353 L26.90625,46.5882353 L26.90625,53.5538235 L41,60.6698529 Z" id="Path"></path>
                    <path d="M10.6252461,13.8562794 L9.71940234,12.9411765 L-1.42108547e-14,12.9411765 L-1.42108547e-14,10.3529412 L10.25,10.3529412 C10.5898134,10.3529287 10.9157134,10.4892646 11.1560039,10.7319559 L12.4372539,12.0260735 L10.6252461,13.8562794 Z" id="Path"></path>
                </g>
            </g>
        </g>
    </g>
</svg>