<?xml version="1.0" encoding="utf-8"?>
<!-- Generator: Adobe Illustrator 22.0.0, SVG Export Plug-In . SVG Version: 6.00 Build 0)  -->
<svg version="1.1" id="Layer_1" xmlns="http://www.w3.org/2000/svg" xmlns:xlink="http://www.w3.org/1999/xlink" x="0px" y="0px"
	 viewBox="0 0 85 85" style="enable-background:new 0 0 85 85;" xml:space="preserve">
<style type="text/css">
	.st0{fill:#03202D;}
</style>
<title>2DD1C724-B654-48A6-A98E-AB9886AB3C6C</title>
<desc>Created with sketchtool.</desc>
<g id="Page-1">
	<g id="Icare" transform="translate(-355.000000, -967.000000)">
		<g id="_x30_02-tablet" transform="translate(354.000000, 967.000000)">
			<path id="Shape" class="st0" d="M64.5,7.1H22.3c-2.7,0-4.8,2.1-4.8,4.8v61.3c0,2.7,2.1,4.8,4.8,4.8h42.4c2.7,0,4.8-2.1,4.8-4.8
				V11.9C69.3,9.2,67.2,7.1,64.5,7.1z M43.4,76.9c-1.7,0-2.9-1.3-2.9-2.9c0-1.7,1.3-2.9,2.9-2.9s2.9,1.3,2.9,2.9
				C46.3,75.7,45.1,76.9,43.4,76.9z M66.6,70H20.2V10.8h46.4V70z"/>
		</g>
	</g>
</g>
</svg>
