<?xml version="1.0" encoding="utf-8"?>
<!-- Generator: Adobe Illustrator 22.0.0, SVG Export Plug-In . SVG Version: 6.00 Build 0)  -->
<svg version="1.1" id="Layer_1" xmlns="http://www.w3.org/2000/svg" xmlns:xlink="http://www.w3.org/1999/xlink" x="0px" y="0px"
	 viewBox="0 0 85 85" style="enable-background:new 0 0 85 85;" xml:space="preserve">
<style type="text/css">
	.st0{fill:#03202D;}
</style>
<title>20B36DE5-07D8-430A-B98C-74EB030BEDFD</title>
<desc>Created with sketchtool.</desc>
<g id="Page-1">
	<g id="Icare" transform="translate(-148.000000, -969.000000)">
		<g id="_x30_01-phone" transform="translate(148.000000, 969.000000)">
			<path id="Shape" class="st0" d="M57.3,7.1H27.5c-2.8,0-4.9,2.3-4.9,5.2v60.5c0,2.8,2.3,5.2,5.1,5.2h29.6c2.8,0,5.1-2.3,5.1-5.2
				V12.3C62.5,9.4,60.1,7.1,57.3,7.1z M42.4,76.9c-1.8,0-3.3-1.6-3.3-3.4c0-1.8,1.5-3.4,3.3-3.4s3.3,1.6,3.3,3.4
				C45.7,75.4,44.2,76.9,42.4,76.9z M59.9,66.3h-35V11.2c0,0,10.5,0,11.1,0s0.8,0.8,0.8,1.3s0.5,0.5,0.5,0.5H48c0,0,0.5,0,0.5-0.5
				s0-1.3,0.8-1.3c0.8,0,11.1,0,11.1,0L59.9,66.3z"/>
		</g>
	</g>
</g>
</svg>
