<?xml version="1.0" encoding="utf-8"?>
<!-- Generator: Adobe Illustrator 22.0.0, SVG Export Plug-In . SVG Version: 6.00 Build 0)  -->
<svg version="1.1" id="Layer_1" xmlns="http://www.w3.org/2000/svg" xmlns:xlink="http://www.w3.org/1999/xlink" x="0px" y="0px"
	 viewBox="0 0 85 85" style="enable-background:new 0 0 85 85;" xml:space="preserve">
<style type="text/css">
	.st0{fill:#03202D;}
</style>
<title>7E2A38DB-1118-47A6-A696-D3266DBC5CB6</title>
<desc>Created with sketchtool.</desc>
<g id="Page-1">
	<g id="Icare" transform="translate(-1018.000000, -969.000000)">
		<g id="_x36_4066" transform="translate(1018.000000, 969.000000)">
			<path id="Shape" class="st0" d="M68.4,74.1V10.9c0-2.1-1.7-3.9-3.9-3.9H20.5c-2.1,0-3.9,1.7-3.9,3.9v63.2c0,2.1,1.7,3.9,3.9,3.9
				h44.1C66.7,78,68.4,76.2,68.4,74.1z M42.5,71.3c-8.4,0-15.1-6.8-15.1-15.1c0-8.3,6.8-15.1,15.1-15.1c8.4,0,15.1,6.8,15.1,15.1
				C57.6,64.5,50.9,71.3,42.5,71.3z M60.4,33.7H24.6V14.6h35.8V33.7L60.4,33.7z"/>
			<circle id="Oval" class="st0" cx="42.5" cy="56.5" r="5"/>
		</g>
	</g>
</g>
</svg>
