<?xml version="1.0" encoding="utf-8"?>
<!-- Generator: Adobe Illustrator 22.0.0, SVG Export Plug-In . SVG Version: 6.00 Build 0)  -->
<svg version="1.1" id="Layer_1" xmlns="http://www.w3.org/2000/svg" xmlns:xlink="http://www.w3.org/1999/xlink" x="0px" y="0px"
	 viewBox="0 0 85 85" style="enable-background:new 0 0 85 85;" xml:space="preserve">
<style type="text/css">
	.st0{fill:none;}
	.st1{fill:#03202D;}
</style>
<title>BDD5F7A0-6AF5-47B5-A8BE-960E616D4BA3</title>
<desc>Created with sketchtool.</desc>
<g id="Page-1">
	<g id="Icare" transform="translate(-758.000000, -948.000000)">
		<g id="_x30_04-macintosh" transform="translate(758.000000, 948.000000)">
			<rect id="Rectangle" x="9.9" y="16.3" class="st0" width="65.2" height="31.2"/>
			<path id="Path" class="st0" d="M52.3,68.7c0,0,0.8,0,0.8,0"/>
			<path id="Path_1_" class="st0" d="M32.8,68.7c-0.4,0-0.5,0-0.5,0"/>
			<ellipse id="Oval" class="st0" cx="42.5" cy="54.1" rx="1.7" ry="1.7"/>
			<rect id="Rectangle_1_" x="9.9" y="16.3" class="st0" width="65.2" height="31.2"/>
			<path id="Path_2_" class="st1" d="M33.7,68.7c-0.4,0-0.7,0-0.9,0c-0.8,0-1.4,0.6-1.4,1.4s0.6,1.4,1.4,1.4h2.2l0,0l0,0h15.2l0,0
				l0,0h2.2c0.8,0,1.4-0.6,1.4-1.4s-0.6-1.4-1.4-1.4c-0.3,0-0.6,0-1,0c-2.5,0-3.1-4.8-3.2-6.9H36.4C36.3,64,35.7,68.7,33.7,68.7z"/>
			<rect id="Rectangle_2_" x="9.9" y="16.3" class="st0" width="65.2" height="31.2"/>
			<path id="Shape" class="st1" d="M75.6,13.5H9.4c-1.3,0-2.4,1.1-2.4,2.4v42.7c0,1.3,1.1,2.4,2.4,2.4h27.1h11.6h27.5
				c1.3,0,2.4-1.1,2.4-2.4V15.8C78,14.5,76.9,13.5,75.6,13.5z M42.5,57.8c-0.9,0-1.7-0.8-1.7-1.7c0-0.9,0.8-1.7,1.7-1.7
				c0.9,0,1.7,0.8,1.7,1.7C44.2,57,43.4,57.8,42.5,57.8z M76.1,51.1H8.9V15.3h67.2V51.1z"/>
		</g>
	</g>
</g>
</svg>
