<?xml version="1.0" encoding="utf-8"?>
<!-- Generator: Adobe Illustrator 22.0.0, SVG Export Plug-In . SVG Version: 6.00 Build 0)  -->
<svg version="1.1" id="Layer_1" xmlns="http://www.w3.org/2000/svg" xmlns:xlink="http://www.w3.org/1999/xlink" x="0px" y="0px"
	 viewBox="0 0 85 85" style="enable-background:new 0 0 85 85;" xml:space="preserve">
<style type="text/css">
	.st0{fill:#03202D;}
</style>
<title>1FC30533-173D-4E7B-BF5E-FE27347CBC2B</title>
<desc>Created with sketchtool.</desc>
<g id="Page-1">
	<g id="Icare" transform="translate(-539.000000, -967.000000)">
		<g id="_x30_03-laptop" transform="translate(539.000000, 967.000000)">
			<path id="Shape" class="st0" d="M13.8,61h57.3c1.2,0,2.1-1,2.1-2.2V22c0-1.2-1-2.2-2.1-2.2H13.8c-1.2,0-2.1,1-2.1,2.2v36.9
				C11.7,60,12.7,61,13.8,61z M13.5,22c0-0.2,0.1-0.3,0.3-0.3h57.3c0.2,0,0.3,0.1,0.3,0.3v36.9c0,0.2-0.1,0.3-0.3,0.3H13.8
				c-0.2,0-0.3-0.1-0.3-0.3V22z M78,62.7v1.7c0,0.4-0.4,0.8-0.8,0.8H7.9c-0.4,0-0.8-0.4-0.8-0.8v-1.7h29.1c0.1,0.5,0.6,0.9,1.1,0.9
				h10.4c0.6,0,1-0.4,1.1-0.9H78z"/>
		</g>
	</g>
</g>
</svg>
