<?xml version="1.0" encoding="utf-8"?>
<!-- Generator: Adobe Illustrator 22.0.0, SVG Export Plug-In . SVG Version: 6.00 Build 0)  -->
<svg version="1.1" id="Layer_1" xmlns="http://www.w3.org/2000/svg" xmlns:xlink="http://www.w3.org/1999/xlink" x="0px" y="0px"
	 viewBox="0 0 85 85" style="enable-background:new 0 0 85 85;" xml:space="preserve">
<style type="text/css">
	.st0{filter:url(#Adobe_OpacityMaskFilter);}
	.st1{fill:#FFFFFF;}
	.st2{mask:url(#mask-2_1_);fill:#03202D;}
	.st3{fill:#03202D;}
</style>
<title>3833F379-39D9-4116-902D-C5193122473B</title>
<desc>Created with sketchtool.</desc>
<g id="Page-1">
	<g id="Icare" transform="translate(-1240.000000, -971.000000)">
		<g id="Group-8" transform="translate(1240.000000, 971.000000)">
			<g id="Group-3">
				<g id="Clip-2">
				</g>
				<defs>
					<filter id="Adobe_OpacityMaskFilter" filterUnits="userSpaceOnUse" x="20.8" y="6.7" width="43.3" height="70.9">
						<feColorMatrix  type="matrix" values="1 0 0 0 0  0 1 0 0 0  0 0 1 0 0  0 0 0 1 0"/>
					</filter>
				</defs>
				<mask maskUnits="userSpaceOnUse" x="20.8" y="6.7" width="43.3" height="70.9" id="mask-2_1_">
					<g class="st0">
						<polygon id="path-1_1_" class="st1" points="20.8,6.7 64.1,6.7 64.1,77.6 20.8,77.6 						"/>
					</g>
				</mask>
				<path id="Fill-1" class="st2" d="M30.4,65.4c0.3,2.9,0.7,5.7,1,8.4c0.1,1,0.7,1.5,1.7,1.5c5.5,0,11,0,16.6,0
					c0.9,0,1.5-0.5,1.6-1.4c0.3-2.8,0.7-5.6,1-8.5H30.4z M30.4,18.8h21.9c-0.3-2.8-0.6-5.6-1-8.4c-0.1-1-0.7-1.5-1.7-1.5
					c-5.5,0-11,0-16.4,0c-1,0-1.6,0.5-1.7,1.5C31.1,13.2,30.7,16,30.4,18.8L30.4,18.8z M23,42.1c0,5.8,0,11.6,0,17.4
					c0,2.2,1.4,3.6,3.6,3.6c9.8,0,19.5,0,29.3,0c2.4,0,3.7-1.4,3.7-3.7c0-11.6,0-23.1,0-34.7c0-2.3-1.4-3.7-3.7-3.7
					c-9.8,0-19.5,0-29.3,0c-2.3,0-3.7,1.4-3.7,3.7C23,30.6,23,36.3,23,42.1L23,42.1z M50.5,6.7c1.5,0.5,2.6,1.4,2.9,3.1
					c0.2,1.1,0.3,2.2,0.4,3.3c0.2,1.9,0.5,3.8,0.7,5.8c0.6,0,1.2,0,1.8,0c3.1,0,5.5,2.4,5.5,5.5c0,1.5,0,3,0,4.6c0.4,0,0.7,0,1,0
					c0.7,0,1.2,0.4,1.2,1.2c0,1.8,0,3.6,0,5.4c0,0.7-0.4,1.1-1.2,1.2c-0.3,0-0.6,0-1,0V43c0,0,0.1,0.1,0.1,0.1
					c1.5,0.2,1.5,0.2,1.5,1.7c0,2.7,0,5.5,0,8.2c0,1.1,0,1.1-1.2,1.2c-0.1,0-0.3,0-0.5,0c0,0.8,0,1.6,0,2.4c0,1.4,0.1,2.9-0.1,4.3
					c-0.4,2.6-2.7,4.4-5.3,4.5c-0.6,0-1.2,0-1.9,0c-0.3,2.4-0.6,4.8-0.8,7.1c-0.1,0.8-0.1,1.6-0.4,2.4c-0.4,1.4-1.5,2.2-2.8,2.7
					H32.2c-0.2-0.1-0.4-0.2-0.5-0.2c-1.3-0.5-2.2-1.5-2.4-2.9c-0.4-2.6-0.6-5.2-1-7.8c0-0.4-0.1-0.8-0.2-1.3c-0.8,0-1.7,0.1-2.5,0
					c-2.9-0.4-4.8-2.7-4.8-5.6c0-8.9,0-17.7,0-26.6c0-2.8,0-5.7,0-8.5c0-3.3,2.4-5.7,5.7-5.7c0.5,0,1.1,0,1.6,0
					c0.3-2.4,0.6-4.7,0.8-7c0.1-0.6,0.1-1.1,0.2-1.7c0.2-1.7,1.2-2.8,2.8-3.3c0.1,0,0.1-0.1,0.2-0.1H50.5z"/>
			</g>
			<path id="Fill-4" class="st3" d="M50.3,36c-3.8,2.7-3.2,7.6,0.7,9.5c-0.2,0.4-0.3,0.9-0.5,1.4c-0.8,1.3-1.6,2.7-2.6,3.9
				c-0.9,1.1-2.3,1.4-3.6,0.8c-1.8-0.8-3.5-0.8-5.3,0c-1.1,0.5-2.2,0.4-3.1-0.4c-3.5-3.6-5.3-7.8-4.2-12.8c0.6-2.5,2.3-4.1,4.8-4.6
				c1-0.2,2,0,2.9,0.4c1.3,0.6,2.5,0.6,3.8,0C46,33.1,48.7,33.8,50.3,36"/>
			<path id="Fill-6" class="st3" d="M41.4,33.2c-0.4-2.6,2.2-5.4,4.9-5.5C46.8,30.5,44.2,33.4,41.4,33.2"/>
		</g>
	</g>
</g>
</svg>
